<svg width="21" height="12" viewBox="0 0 21 12" fill="none" xmlns="http://www.w3.org/2000/svg">
<path d="M10.286 11.3635H11.4811C11.4811 11.3635 11.8424 11.3234 12.0261 11.1247C12.1961 10.9422 12.1899 10.5996 12.1899 10.5996C12.1899 10.5996 12.1661 8.99577 12.9112 8.75951C13.645 8.52699 14.5876 10.3096 15.5864 10.9959C16.3414 11.5147 16.9152 11.401 16.9152 11.401L19.5867 11.3635C19.5867 11.3635 20.9843 11.2772 20.3217 10.1784C20.268 10.0884 19.9355 9.3658 18.3353 7.88069C16.6602 6.32558 16.8852 6.57809 18.9029 3.88915C20.1317 2.25152 20.623 1.25145 20.4692 0.823917C20.323 0.416387 19.4192 0.523895 19.4192 0.523895L16.4139 0.541396C16.4139 0.541396 16.1914 0.511394 16.0252 0.610151C15.8639 0.707659 15.7601 0.932675 15.7601 0.932675C15.7601 0.932675 15.2839 2.20027 14.6488 3.27785C13.31 5.55177 12.7737 5.67178 12.5549 5.53052C12.0461 5.20174 12.1736 4.20792 12.1736 3.50287C12.1736 1.29895 12.5074 0.380134 11.5223 0.142616C11.1948 0.0638606 10.9548 0.0113567 10.1185 0.00260608C9.04591 -0.00864475 8.13709 0.00635636 7.6233 0.257625C7.28078 0.425137 7.01701 0.798916 7.17827 0.820167C7.37703 0.846419 7.82707 0.941426 8.06583 1.26645C8.37461 1.68523 8.36336 2.6278 8.36336 2.6278C8.36336 2.6278 8.54087 5.22174 7.94958 5.54427C7.5433 5.76553 6.987 5.31425 5.79317 3.25035C5.18187 2.19402 4.71934 1.02518 4.71934 1.02518C4.71934 1.02518 4.63058 0.807666 4.47182 0.691407C4.27931 0.550147 4.00929 0.505144 4.00929 0.505144L1.15158 0.522645C1.15158 0.522645 0.722795 0.535146 0.565284 0.72141C0.425274 0.887672 0.554033 1.2302 0.554033 1.2302C0.554033 1.2302 2.7917 6.46434 5.32438 9.10328C7.6483 11.5222 10.286 11.3635 10.286 11.3635Z" fill="#1E88E5"/>
</svg>
